<?xml version="1.0" standalone="no"?>
<!DOCTYPE svg PUBLIC "-//W3C//DTD SVG 20010904//EN"
 "http://www.w3.org/TR/2001/REC-SVG-20010904/DTD/svg10.dtd">
<svg version="1.0" xmlns="http://www.w3.org/2000/svg"
 width="147.000000pt" height="147.000000pt" viewBox="0 0 147.000000 147.000000"
 preserveAspectRatio="xMidYMid meet">
<metadata>
Created by potrace 1.14, written by Peter Selinger 2001-2017
</metadata>
<g transform="translate(0.000000,147.000000) scale(0.100000,-0.100000)"
fill="#000000" stroke="none">
<path d="M551 1434 c-201 -54 -380 -238 -427 -440 -22 -97 -15 -267 14 -348
121 -330 482 -492 806 -360 l60 24 23 -22 23 -22 38 35 c20 19 39 35 41 37 3
1 -5 12 -16 24 l-22 21 54 59 c113 126 161 262 152 438 -9 166 -60 282 -177
399 -119 119 -246 171 -412 170 -57 0 -127 -7 -157 -15z m67 -89 c-2 -9 -31
-26 -69 -39 -246 -86 -384 -355 -308 -601 21 -70 20 -99 -5 -89 -26 10 -59
137 -58 228 2 224 142 424 351 501 52 19 93 19 89 0z m126 -77 c18 -64 43 -98
119 -168 77 -70 107 -130 107 -212 -1 -102 -49 -186 -132 -229 -49 -25 -57
-24 -24 2 15 12 40 44 56 73 24 40 30 63 30 109 0 76 -23 119 -99 185 l-61 53
0 -283 c0 -257 -2 -287 -20 -325 -43 -95 -157 -120 -235 -52 -69 61 -69 148 1
209 34 29 41 31 93 28 31 -2 64 -8 74 -12 16 -8 17 11 17 326 0 184 3 338 7
341 3 4 17 7 29 7 19 0 25 -9 38 -52z m-240 -84 c32 -31 7 -94 -37 -94 -27 0
-57 28 -57 53 0 48 61 74 94 41z m670 -107 c58 -98 72 -274 31 -389 -18 -52
-28 -63 -50 -54 -11 4 -10 15 6 62 41 116 35 228 -17 345 -24 54 -25 79 -4 79
5 0 20 -19 34 -43z m-784 -11 c0 -17 -42 -78 -57 -84 -19 -6 -16 35 4 69 18
30 53 40 53 15z m690 -640 c0 -18 -85 -96 -105 -96 -28 0 -15 28 33 69 49 42
72 51 72 27z"/>
<path d="M1098 286 c-32 -29 -58 -59 -58 -66 0 -20 148 -177 180 -190 64 -27
130 20 130 92 -1 40 -6 49 -84 131 -46 48 -90 87 -97 87 -8 -1 -40 -25 -71
-54z"/>
</g>
</svg>
